<?xml version="1.0" encoding="utf-8" standalone="no"?>
<!DOCTYPE svg PUBLIC "-//W3C//DTD SVG 1.1//EN"
  "http://www.w3.org/Graphics/SVG/1.1/DTD/svg11.dtd">
<!-- Created with matplotlib (https://matplotlib.org/) -->
<svg height="288pt" version="1.1" viewBox="0 0 432 288" width="432pt" xmlns="http://www.w3.org/2000/svg" xmlns:xlink="http://www.w3.org/1999/xlink">
 <metadata>
  <rdf:RDF xmlns:cc="http://creativecommons.org/ns#" xmlns:dc="http://purl.org/dc/elements/1.1/" xmlns:rdf="http://www.w3.org/1999/02/22-rdf-syntax-ns#">
   <cc:Work>
    <dc:type rdf:resource="http://purl.org/dc/dcmitype/StillImage"/>
    <dc:date>2022-04-16T12:50:34.478043</dc:date>
    <dc:format>image/svg+xml</dc:format>
    <dc:creator>
     <cc:Agent>
      <dc:title>Matplotlib v3.3.3, https://matplotlib.org/</dc:title>
     </cc:Agent>
    </dc:creator>
   </cc:Work>
  </rdf:RDF>
 </metadata>
 <defs>
  <style type="text/css">*{stroke-linecap:butt;stroke-linejoin:round;}</style>
 </defs>
 <g id="figure_1">
  <g id="patch_1">
   <path d="M 0 288 
L 432 288 
L 432 0 
L 0 0 
z
" style="fill:none;"/>
  </g>
  <g id="axes_1">
   <g id="patch_2">
    <path d="M 54 252 
L 388.8 252 
L 388.8 34.56 
L 54 34.56 
z
" style="fill:#ffffff;"/>
   </g>
   <g id="matplotlib.axis_1">
    <g id="xtick_1">
     <g id="line2d_1">
      <defs>
       <path d="M 0 0 
L 0 3.5 
" id="md68793c0ab" style="stroke:#000000;stroke-width:0.8;"/>
      </defs>
      <g>
       <use style="stroke:#000000;stroke-width:0.8;" x="54" xlink:href="#md68793c0ab" y="242.116364"/>
      </g>
     </g>
     <g id="text_1">
      <!-- 0 -->
      <g transform="translate(50.81875 256.714801)scale(0.1 -0.1)">
       <defs>
        <path d="M 31.78125 66.40625 
Q 24.171875 66.40625 20.328125 58.90625 
Q 16.5 51.421875 16.5 36.375 
Q 16.5 21.390625 20.328125 13.890625 
Q 24.171875 6.390625 31.78125 6.390625 
Q 39.453125 6.390625 43.28125 13.890625 
Q 47.125 21.390625 47.125 36.375 
Q 47.125 51.421875 43.28125 58.90625 
Q 39.453125 66.40625 31.78125 66.40625 
z
M 31.78125 74.21875 
Q 44.046875 74.21875 50.515625 64.515625 
Q 56.984375 54.828125 56.984375 36.375 
Q 56.984375 17.96875 50.515625 8.265625 
Q 44.046875 -1.421875 31.78125 -1.421875 
Q 19.53125 -1.421875 13.0625 8.265625 
Q 6.59375 17.96875 6.59375 36.375 
Q 6.59375 54.828125 13.0625 64.515625 
Q 19.53125 74.21875 31.78125 74.21875 
z
" id="DejaVuSans-48"/>
       </defs>
       <use xlink:href="#DejaVuSans-48"/>
      </g>
     </g>
    </g>
    <g id="xtick_2">
     <g id="line2d_2">
      <g>
       <use style="stroke:#000000;stroke-width:0.8;" x="101.828571" xlink:href="#md68793c0ab" y="242.116364"/>
      </g>
     </g>
     <g id="text_2">
      <!-- 1000 -->
      <g transform="translate(89.103571 256.714801)scale(0.1 -0.1)">
       <defs>
        <path d="M 12.40625 8.296875 
L 28.515625 8.296875 
L 28.515625 63.921875 
L 10.984375 60.40625 
L 10.984375 69.390625 
L 28.421875 72.90625 
L 38.28125 72.90625 
L 38.28125 8.296875 
L 54.390625 8.296875 
L 54.390625 0 
L 12.40625 0 
z
" id="DejaVuSans-49"/>
       </defs>
       <use xlink:href="#DejaVuSans-49"/>
       <use x="63.623047" xlink:href="#DejaVuSans-48"/>
       <use x="127.246094" xlink:href="#DejaVuSans-48"/>
       <use x="190.869141" xlink:href="#DejaVuSans-48"/>
      </g>
     </g>
    </g>
    <g id="xtick_3">
     <g id="line2d_3">
      <g>
       <use style="stroke:#000000;stroke-width:0.8;" x="149.657143" xlink:href="#md68793c0ab" y="242.116364"/>
      </g>
     </g>
     <g id="text_3">
      <!-- 2000 -->
      <g transform="translate(136.932143 256.714801)scale(0.1 -0.1)">
       <defs>
        <path d="M 19.1875 8.296875 
L 53.609375 8.296875 
L 53.609375 0 
L 7.328125 0 
L 7.328125 8.296875 
Q 12.9375 14.109375 22.625 23.890625 
Q 32.328125 33.6875 34.8125 36.53125 
Q 39.546875 41.84375 41.421875 45.53125 
Q 43.3125 49.21875 43.3125 52.78125 
Q 43.3125 58.59375 39.234375 62.25 
Q 35.15625 65.921875 28.609375 65.921875 
Q 23.96875 65.921875 18.8125 64.3125 
Q 13.671875 62.703125 7.8125 59.421875 
L 7.8125 69.390625 
Q 13.765625 71.78125 18.9375 73 
Q 24.125 74.21875 28.421875 74.21875 
Q 39.75 74.21875 46.484375 68.546875 
Q 53.21875 62.890625 53.21875 53.421875 
Q 53.21875 48.921875 51.53125 44.890625 
Q 49.859375 40.875 45.40625 35.40625 
Q 44.1875 33.984375 37.640625 27.21875 
Q 31.109375 20.453125 19.1875 8.296875 
z
" id="DejaVuSans-50"/>
       </defs>
       <use xlink:href="#DejaVuSans-50"/>
       <use x="63.623047" xlink:href="#DejaVuSans-48"/>
       <use x="127.246094" xlink:href="#DejaVuSans-48"/>
       <use x="190.869141" xlink:href="#DejaVuSans-48"/>
      </g>
     </g>
    </g>
    <g id="xtick_4">
     <g id="line2d_4">
      <g>
       <use style="stroke:#000000;stroke-width:0.8;" x="197.485714" xlink:href="#md68793c0ab" y="242.116364"/>
      </g>
     </g>
     <g id="text_4">
      <!-- 3000 -->
      <g transform="translate(184.760714 256.714801)scale(0.1 -0.1)">
       <defs>
        <path d="M 40.578125 39.3125 
Q 47.65625 37.796875 51.625 33 
Q 55.609375 28.21875 55.609375 21.1875 
Q 55.609375 10.40625 48.1875 4.484375 
Q 40.765625 -1.421875 27.09375 -1.421875 
Q 22.515625 -1.421875 17.65625 -0.515625 
Q 12.796875 0.390625 7.625 2.203125 
L 7.625 11.71875 
Q 11.71875 9.328125 16.59375 8.109375 
Q 21.484375 6.890625 26.8125 6.890625 
Q 36.078125 6.890625 40.9375 10.546875 
Q 45.796875 14.203125 45.796875 21.1875 
Q 45.796875 27.640625 41.28125 31.265625 
Q 36.765625 34.90625 28.71875 34.90625 
L 20.21875 34.90625 
L 20.21875 43.015625 
L 29.109375 43.015625 
Q 36.375 43.015625 40.234375 45.921875 
Q 44.09375 48.828125 44.09375 54.296875 
Q 44.09375 59.90625 40.109375 62.90625 
Q 36.140625 65.921875 28.71875 65.921875 
Q 24.65625 65.921875 20.015625 65.03125 
Q 15.375 64.15625 9.8125 62.3125 
L 9.8125 71.09375 
Q 15.4375 72.65625 20.34375 73.4375 
Q 25.25 74.21875 29.59375 74.21875 
Q 40.828125 74.21875 47.359375 69.109375 
Q 53.90625 64.015625 53.90625 55.328125 
Q 53.90625 49.265625 50.4375 45.09375 
Q 46.96875 40.921875 40.578125 39.3125 
z
" id="DejaVuSans-51"/>
       </defs>
       <use xlink:href="#DejaVuSans-51"/>
       <use x="63.623047" xlink:href="#DejaVuSans-48"/>
       <use x="127.246094" xlink:href="#DejaVuSans-48"/>
       <use x="190.869141" xlink:href="#DejaVuSans-48"/>
      </g>
     </g>
    </g>
    <g id="xtick_5">
     <g id="line2d_5">
      <g>
       <use style="stroke:#000000;stroke-width:0.8;" x="245.314286" xlink:href="#md68793c0ab" y="242.116364"/>
      </g>
     </g>
     <g id="text_5">
      <!-- 4000 -->
      <g transform="translate(232.589286 256.714801)scale(0.1 -0.1)">
       <defs>
        <path d="M 37.796875 64.3125 
L 12.890625 25.390625 
L 37.796875 25.390625 
z
M 35.203125 72.90625 
L 47.609375 72.90625 
L 47.609375 25.390625 
L 58.015625 25.390625 
L 58.015625 17.1875 
L 47.609375 17.1875 
L 47.609375 0 
L 37.796875 0 
L 37.796875 17.1875 
L 4.890625 17.1875 
L 4.890625 26.703125 
z
" id="DejaVuSans-52"/>
       </defs>
       <use xlink:href="#DejaVuSans-52"/>
       <use x="63.623047" xlink:href="#DejaVuSans-48"/>
       <use x="127.246094" xlink:href="#DejaVuSans-48"/>
       <use x="190.869141" xlink:href="#DejaVuSans-48"/>
      </g>
     </g>
    </g>
    <g id="xtick_6">
     <g id="line2d_6">
      <g>
       <use style="stroke:#000000;stroke-width:0.8;" x="293.142857" xlink:href="#md68793c0ab" y="242.116364"/>
      </g>
     </g>
     <g id="text_6">
      <!-- 5000 -->
      <g transform="translate(280.417857 256.714801)scale(0.1 -0.1)">
       <defs>
        <path d="M 10.796875 72.90625 
L 49.515625 72.90625 
L 49.515625 64.59375 
L 19.828125 64.59375 
L 19.828125 46.734375 
Q 21.96875 47.46875 24.109375 47.828125 
Q 26.265625 48.1875 28.421875 48.1875 
Q 40.625 48.1875 47.75 41.5 
Q 54.890625 34.8125 54.890625 23.390625 
Q 54.890625 11.625 47.5625 5.09375 
Q 40.234375 -1.421875 26.90625 -1.421875 
Q 22.3125 -1.421875 17.546875 -0.640625 
Q 12.796875 0.140625 7.71875 1.703125 
L 7.71875 11.625 
Q 12.109375 9.234375 16.796875 8.0625 
Q 21.484375 6.890625 26.703125 6.890625 
Q 35.15625 6.890625 40.078125 11.328125 
Q 45.015625 15.765625 45.015625 23.390625 
Q 45.015625 31 40.078125 35.4375 
Q 35.15625 39.890625 26.703125 39.890625 
Q 22.75 39.890625 18.8125 39.015625 
Q 14.890625 38.140625 10.796875 36.28125 
z
" id="DejaVuSans-53"/>
       </defs>
       <use xlink:href="#DejaVuSans-53"/>
       <use x="63.623047" xlink:href="#DejaVuSans-48"/>
       <use x="127.246094" xlink:href="#DejaVuSans-48"/>
       <use x="190.869141" xlink:href="#DejaVuSans-48"/>
      </g>
     </g>
    </g>
    <g id="xtick_7">
     <g id="line2d_7">
      <g>
       <use style="stroke:#000000;stroke-width:0.8;" x="340.971429" xlink:href="#md68793c0ab" y="242.116364"/>
      </g>
     </g>
     <g id="text_7">
      <!-- 6000 -->
      <g transform="translate(328.246429 256.714801)scale(0.1 -0.1)">
       <defs>
        <path d="M 33.015625 40.375 
Q 26.375 40.375 22.484375 35.828125 
Q 18.609375 31.296875 18.609375 23.390625 
Q 18.609375 15.53125 22.484375 10.953125 
Q 26.375 6.390625 33.015625 6.390625 
Q 39.65625 6.390625 43.53125 10.953125 
Q 47.40625 15.53125 47.40625 23.390625 
Q 47.40625 31.296875 43.53125 35.828125 
Q 39.65625 40.375 33.015625 40.375 
z
M 52.59375 71.296875 
L 52.59375 62.3125 
Q 48.875 64.0625 45.09375 64.984375 
Q 41.3125 65.921875 37.59375 65.921875 
Q 27.828125 65.921875 22.671875 59.328125 
Q 17.53125 52.734375 16.796875 39.40625 
Q 19.671875 43.65625 24.015625 45.921875 
Q 28.375 48.1875 33.59375 48.1875 
Q 44.578125 48.1875 50.953125 41.515625 
Q 57.328125 34.859375 57.328125 23.390625 
Q 57.328125 12.15625 50.6875 5.359375 
Q 44.046875 -1.421875 33.015625 -1.421875 
Q 20.359375 -1.421875 13.671875 8.265625 
Q 6.984375 17.96875 6.984375 36.375 
Q 6.984375 53.65625 15.1875 63.9375 
Q 23.390625 74.21875 37.203125 74.21875 
Q 40.921875 74.21875 44.703125 73.484375 
Q 48.484375 72.75 52.59375 71.296875 
z
" id="DejaVuSans-54"/>
       </defs>
       <use xlink:href="#DejaVuSans-54"/>
       <use x="63.623047" xlink:href="#DejaVuSans-48"/>
       <use x="127.246094" xlink:href="#DejaVuSans-48"/>
       <use x="190.869141" xlink:href="#DejaVuSans-48"/>
      </g>
     </g>
    </g>
    <g id="xtick_8">
     <g id="line2d_8">
      <g>
       <use style="stroke:#000000;stroke-width:0.8;" x="388.8" xlink:href="#md68793c0ab" y="242.116364"/>
      </g>
     </g>
     <g id="text_8">
      <!-- 7000 -->
      <g transform="translate(376.075 256.714801)scale(0.1 -0.1)">
       <defs>
        <path d="M 8.203125 72.90625 
L 55.078125 72.90625 
L 55.078125 68.703125 
L 28.609375 0 
L 18.3125 0 
L 43.21875 64.59375 
L 8.203125 64.59375 
z
" id="DejaVuSans-55"/>
       </defs>
       <use xlink:href="#DejaVuSans-55"/>
       <use x="63.623047" xlink:href="#DejaVuSans-48"/>
       <use x="127.246094" xlink:href="#DejaVuSans-48"/>
       <use x="190.869141" xlink:href="#DejaVuSans-48"/>
      </g>
     </g>
    </g>
    <g id="text_9">
     <!-- Object Size -->
     <g transform="translate(193.261719 270.392926)scale(0.1 -0.1)">
      <defs>
       <path d="M 39.40625 66.21875 
Q 28.65625 66.21875 22.328125 58.203125 
Q 16.015625 50.203125 16.015625 36.375 
Q 16.015625 22.609375 22.328125 14.59375 
Q 28.65625 6.59375 39.40625 6.59375 
Q 50.140625 6.59375 56.421875 14.59375 
Q 62.703125 22.609375 62.703125 36.375 
Q 62.703125 50.203125 56.421875 58.203125 
Q 50.140625 66.21875 39.40625 66.21875 
z
M 39.40625 74.21875 
Q 54.734375 74.21875 63.90625 63.9375 
Q 73.09375 53.65625 73.09375 36.375 
Q 73.09375 19.140625 63.90625 8.859375 
Q 54.734375 -1.421875 39.40625 -1.421875 
Q 24.03125 -1.421875 14.8125 8.828125 
Q 5.609375 19.09375 5.609375 36.375 
Q 5.609375 53.65625 14.8125 63.9375 
Q 24.03125 74.21875 39.40625 74.21875 
z
" id="DejaVuSans-79"/>
       <path d="M 48.6875 27.296875 
Q 48.6875 37.203125 44.609375 42.84375 
Q 40.53125 48.484375 33.40625 48.484375 
Q 26.265625 48.484375 22.1875 42.84375 
Q 18.109375 37.203125 18.109375 27.296875 
Q 18.109375 17.390625 22.1875 11.75 
Q 26.265625 6.109375 33.40625 6.109375 
Q 40.53125 6.109375 44.609375 11.75 
Q 48.6875 17.390625 48.6875 27.296875 
z
M 18.109375 46.390625 
Q 20.953125 51.265625 25.265625 53.625 
Q 29.59375 56 35.59375 56 
Q 45.5625 56 51.78125 48.09375 
Q 58.015625 40.1875 58.015625 27.296875 
Q 58.015625 14.40625 51.78125 6.484375 
Q 45.5625 -1.421875 35.59375 -1.421875 
Q 29.59375 -1.421875 25.265625 0.953125 
Q 20.953125 3.328125 18.109375 8.203125 
L 18.109375 0 
L 9.078125 0 
L 9.078125 75.984375 
L 18.109375 75.984375 
z
" id="DejaVuSans-98"/>
       <path d="M 9.421875 54.6875 
L 18.40625 54.6875 
L 18.40625 -0.984375 
Q 18.40625 -11.421875 14.421875 -16.109375 
Q 10.453125 -20.796875 1.609375 -20.796875 
L -1.8125 -20.796875 
L -1.8125 -13.1875 
L 0.59375 -13.1875 
Q 5.71875 -13.1875 7.5625 -10.8125 
Q 9.421875 -8.453125 9.421875 -0.984375 
z
M 9.421875 75.984375 
L 18.40625 75.984375 
L 18.40625 64.59375 
L 9.421875 64.59375 
z
" id="DejaVuSans-106"/>
       <path d="M 56.203125 29.59375 
L 56.203125 25.203125 
L 14.890625 25.203125 
Q 15.484375 15.921875 20.484375 11.0625 
Q 25.484375 6.203125 34.421875 6.203125 
Q 39.59375 6.203125 44.453125 7.46875 
Q 49.3125 8.734375 54.109375 11.28125 
L 54.109375 2.78125 
Q 49.265625 0.734375 44.1875 -0.34375 
Q 39.109375 -1.421875 33.890625 -1.421875 
Q 20.796875 -1.421875 13.15625 6.1875 
Q 5.515625 13.8125 5.515625 26.8125 
Q 5.515625 40.234375 12.765625 48.109375 
Q 20.015625 56 32.328125 56 
Q 43.359375 56 49.78125 48.890625 
Q 56.203125 41.796875 56.203125 29.59375 
z
M 47.21875 32.234375 
Q 47.125 39.59375 43.09375 43.984375 
Q 39.0625 48.390625 32.421875 48.390625 
Q 24.90625 48.390625 20.390625 44.140625 
Q 15.875 39.890625 15.1875 32.171875 
z
" id="DejaVuSans-101"/>
       <path d="M 48.78125 52.59375 
L 48.78125 44.1875 
Q 44.96875 46.296875 41.140625 47.34375 
Q 37.3125 48.390625 33.40625 48.390625 
Q 24.65625 48.390625 19.8125 42.84375 
Q 14.984375 37.3125 14.984375 27.296875 
Q 14.984375 17.28125 19.8125 11.734375 
Q 24.65625 6.203125 33.40625 6.203125 
Q 37.3125 6.203125 41.140625 7.25 
Q 44.96875 8.296875 48.78125 10.40625 
L 48.78125 2.09375 
Q 45.015625 0.34375 40.984375 -0.53125 
Q 36.96875 -1.421875 32.421875 -1.421875 
Q 20.0625 -1.421875 12.78125 6.34375 
Q 5.515625 14.109375 5.515625 27.296875 
Q 5.515625 40.671875 12.859375 48.328125 
Q 20.21875 56 33.015625 56 
Q 37.15625 56 41.109375 55.140625 
Q 45.0625 54.296875 48.78125 52.59375 
z
" id="DejaVuSans-99"/>
       <path d="M 18.3125 70.21875 
L 18.3125 54.6875 
L 36.8125 54.6875 
L 36.8125 47.703125 
L 18.3125 47.703125 
L 18.3125 18.015625 
Q 18.3125 11.328125 20.140625 9.421875 
Q 21.96875 7.515625 27.59375 7.515625 
L 36.8125 7.515625 
L 36.8125 0 
L 27.59375 0 
Q 17.1875 0 13.234375 3.875 
Q 9.28125 7.765625 9.28125 18.015625 
L 9.28125 47.703125 
L 2.6875 47.703125 
L 2.6875 54.6875 
L 9.28125 54.6875 
L 9.28125 70.21875 
z
" id="DejaVuSans-116"/>
       <path id="DejaVuSans-32"/>
       <path d="M 53.515625 70.515625 
L 53.515625 60.890625 
Q 47.90625 63.578125 42.921875 64.890625 
Q 37.9375 66.21875 33.296875 66.21875 
Q 25.25 66.21875 20.875 63.09375 
Q 16.5 59.96875 16.5 54.203125 
Q 16.5 49.359375 19.40625 46.890625 
Q 22.3125 44.4375 30.421875 42.921875 
L 36.375 41.703125 
Q 47.40625 39.59375 52.65625 34.296875 
Q 57.90625 29 57.90625 20.125 
Q 57.90625 9.515625 50.796875 4.046875 
Q 43.703125 -1.421875 29.984375 -1.421875 
Q 24.8125 -1.421875 18.96875 -0.25 
Q 13.140625 0.921875 6.890625 3.21875 
L 6.890625 13.375 
Q 12.890625 10.015625 18.65625 8.296875 
Q 24.421875 6.59375 29.984375 6.59375 
Q 38.421875 6.59375 43.015625 9.90625 
Q 47.609375 13.234375 47.609375 19.390625 
Q 47.609375 24.75 44.3125 27.78125 
Q 41.015625 30.8125 33.5 32.328125 
L 27.484375 33.5 
Q 16.453125 35.6875 11.515625 40.375 
Q 6.59375 45.0625 6.59375 53.421875 
Q 6.59375 63.09375 13.40625 68.65625 
Q 20.21875 74.21875 32.171875 74.21875 
Q 37.3125 74.21875 42.625 73.28125 
Q 47.953125 72.359375 53.515625 70.515625 
z
" id="DejaVuSans-83"/>
       <path d="M 9.421875 54.6875 
L 18.40625 54.6875 
L 18.40625 0 
L 9.421875 0 
z
M 9.421875 75.984375 
L 18.40625 75.984375 
L 18.40625 64.59375 
L 9.421875 64.59375 
z
" id="DejaVuSans-105"/>
       <path d="M 5.515625 54.6875 
L 48.1875 54.6875 
L 48.1875 46.484375 
L 14.40625 7.171875 
L 48.1875 7.171875 
L 48.1875 0 
L 4.296875 0 
L 4.296875 8.203125 
L 38.09375 47.515625 
L 5.515625 47.515625 
z
" id="DejaVuSans-122"/>
      </defs>
      <use xlink:href="#DejaVuSans-79"/>
      <use x="78.710938" xlink:href="#DejaVuSans-98"/>
      <use x="142.1875" xlink:href="#DejaVuSans-106"/>
      <use x="169.970703" xlink:href="#DejaVuSans-101"/>
      <use x="231.494141" xlink:href="#DejaVuSans-99"/>
      <use x="286.474609" xlink:href="#DejaVuSans-116"/>
      <use x="325.683594" xlink:href="#DejaVuSans-32"/>
      <use x="357.470703" xlink:href="#DejaVuSans-83"/>
      <use x="420.947266" xlink:href="#DejaVuSans-105"/>
      <use x="448.730469" xlink:href="#DejaVuSans-122"/>
      <use x="501.220703" xlink:href="#DejaVuSans-101"/>
     </g>
    </g>
   </g>
   <g id="matplotlib.axis_2">
    <g id="ytick_1">
     <g id="line2d_9">
      <defs>
       <path d="M 0 0 
L -3.5 0 
" id="m523d510a42" style="stroke:#000000;stroke-width:0.8;"/>
      </defs>
      <g>
       <use style="stroke:#000000;stroke-width:0.8;" x="54" xlink:href="#m523d510a42" y="242.116364"/>
      </g>
     </g>
     <g id="text_10">
      <!-- 0.0 -->
      <g transform="translate(31.096875 245.915582)scale(0.1 -0.1)">
       <defs>
        <path d="M 10.6875 12.40625 
L 21 12.40625 
L 21 0 
L 10.6875 0 
z
" id="DejaVuSans-46"/>
       </defs>
       <use xlink:href="#DejaVuSans-48"/>
       <use x="63.623047" xlink:href="#DejaVuSans-46"/>
       <use x="95.410156" xlink:href="#DejaVuSans-48"/>
      </g>
     </g>
    </g>
    <g id="ytick_2">
     <g id="line2d_10">
      <g>
       <use style="stroke:#000000;stroke-width:0.8;" x="54" xlink:href="#m523d510a42" y="202.580834"/>
      </g>
     </g>
     <g id="text_11">
      <!-- 0.2 -->
      <g transform="translate(31.096875 206.380053)scale(0.1 -0.1)">
       <use xlink:href="#DejaVuSans-48"/>
       <use x="63.623047" xlink:href="#DejaVuSans-46"/>
       <use x="95.410156" xlink:href="#DejaVuSans-50"/>
      </g>
     </g>
    </g>
    <g id="ytick_3">
     <g id="line2d_11">
      <g>
       <use style="stroke:#000000;stroke-width:0.8;" x="54" xlink:href="#m523d510a42" y="163.045304"/>
      </g>
     </g>
     <g id="text_12">
      <!-- 0.4 -->
      <g transform="translate(31.096875 166.844523)scale(0.1 -0.1)">
       <use xlink:href="#DejaVuSans-48"/>
       <use x="63.623047" xlink:href="#DejaVuSans-46"/>
       <use x="95.410156" xlink:href="#DejaVuSans-52"/>
      </g>
     </g>
    </g>
    <g id="ytick_4">
     <g id="line2d_12">
      <g>
       <use style="stroke:#000000;stroke-width:0.8;" x="54" xlink:href="#m523d510a42" y="123.509775"/>
      </g>
     </g>
     <g id="text_13">
      <!-- 0.6 -->
      <g transform="translate(31.096875 127.308993)scale(0.1 -0.1)">
       <use xlink:href="#DejaVuSans-48"/>
       <use x="63.623047" xlink:href="#DejaVuSans-46"/>
       <use x="95.410156" xlink:href="#DejaVuSans-54"/>
      </g>
     </g>
    </g>
    <g id="ytick_5">
     <g id="line2d_13">
      <g>
       <use style="stroke:#000000;stroke-width:0.8;" x="54" xlink:href="#m523d510a42" y="83.974245"/>
      </g>
     </g>
     <g id="text_14">
      <!-- 0.8 -->
      <g transform="translate(31.096875 87.773464)scale(0.1 -0.1)">
       <defs>
        <path d="M 31.78125 34.625 
Q 24.75 34.625 20.71875 30.859375 
Q 16.703125 27.09375 16.703125 20.515625 
Q 16.703125 13.921875 20.71875 10.15625 
Q 24.75 6.390625 31.78125 6.390625 
Q 38.8125 6.390625 42.859375 10.171875 
Q 46.921875 13.96875 46.921875 20.515625 
Q 46.921875 27.09375 42.890625 30.859375 
Q 38.875 34.625 31.78125 34.625 
z
M 21.921875 38.8125 
Q 15.578125 40.375 12.03125 44.71875 
Q 8.5 49.078125 8.5 55.328125 
Q 8.5 64.0625 14.71875 69.140625 
Q 20.953125 74.21875 31.78125 74.21875 
Q 42.671875 74.21875 48.875 69.140625 
Q 55.078125 64.0625 55.078125 55.328125 
Q 55.078125 49.078125 51.53125 44.71875 
Q 48 40.375 41.703125 38.8125 
Q 48.828125 37.15625 52.796875 32.3125 
Q 56.78125 27.484375 56.78125 20.515625 
Q 56.78125 9.90625 50.3125 4.234375 
Q 43.84375 -1.421875 31.78125 -1.421875 
Q 19.734375 -1.421875 13.25 4.234375 
Q 6.78125 9.90625 6.78125 20.515625 
Q 6.78125 27.484375 10.78125 32.3125 
Q 14.796875 37.15625 21.921875 38.8125 
z
M 18.3125 54.390625 
Q 18.3125 48.734375 21.84375 45.5625 
Q 25.390625 42.390625 31.78125 42.390625 
Q 38.140625 42.390625 41.71875 45.5625 
Q 45.3125 48.734375 45.3125 54.390625 
Q 45.3125 60.0625 41.71875 63.234375 
Q 38.140625 66.40625 31.78125 66.40625 
Q 25.390625 66.40625 21.84375 63.234375 
Q 18.3125 60.0625 18.3125 54.390625 
z
" id="DejaVuSans-56"/>
       </defs>
       <use xlink:href="#DejaVuSans-48"/>
       <use x="63.623047" xlink:href="#DejaVuSans-46"/>
       <use x="95.410156" xlink:href="#DejaVuSans-56"/>
      </g>
     </g>
    </g>
    <g id="ytick_6">
     <g id="line2d_14">
      <g>
       <use style="stroke:#000000;stroke-width:0.8;" x="54" xlink:href="#m523d510a42" y="44.438715"/>
      </g>
     </g>
     <g id="text_15">
      <!-- 1.0 -->
      <g transform="translate(31.096875 48.237934)scale(0.1 -0.1)">
       <use xlink:href="#DejaVuSans-49"/>
       <use x="63.623047" xlink:href="#DejaVuSans-46"/>
       <use x="95.410156" xlink:href="#DejaVuSans-48"/>
      </g>
     </g>
    </g>
    <g id="text_16">
     <!-- CDF -->
     <g transform="translate(25.017187 153.497187)rotate(-90)scale(0.1 -0.1)">
      <defs>
       <path d="M 64.40625 67.28125 
L 64.40625 56.890625 
Q 59.421875 61.53125 53.78125 63.8125 
Q 48.140625 66.109375 41.796875 66.109375 
Q 29.296875 66.109375 22.65625 58.46875 
Q 16.015625 50.828125 16.015625 36.375 
Q 16.015625 21.96875 22.65625 14.328125 
Q 29.296875 6.6875 41.796875 6.6875 
Q 48.140625 6.6875 53.78125 8.984375 
Q 59.421875 11.28125 64.40625 15.921875 
L 64.40625 5.609375 
Q 59.234375 2.09375 53.4375 0.328125 
Q 47.65625 -1.421875 41.21875 -1.421875 
Q 24.65625 -1.421875 15.125 8.703125 
Q 5.609375 18.84375 5.609375 36.375 
Q 5.609375 53.953125 15.125 64.078125 
Q 24.65625 74.21875 41.21875 74.21875 
Q 47.75 74.21875 53.53125 72.484375 
Q 59.328125 70.75 64.40625 67.28125 
z
" id="DejaVuSans-67"/>
       <path d="M 19.671875 64.796875 
L 19.671875 8.109375 
L 31.59375 8.109375 
Q 46.6875 8.109375 53.6875 14.9375 
Q 60.6875 21.78125 60.6875 36.53125 
Q 60.6875 51.171875 53.6875 57.984375 
Q 46.6875 64.796875 31.59375 64.796875 
z
M 9.8125 72.90625 
L 30.078125 72.90625 
Q 51.265625 72.90625 61.171875 64.09375 
Q 71.09375 55.28125 71.09375 36.53125 
Q 71.09375 17.671875 61.125 8.828125 
Q 51.171875 0 30.078125 0 
L 9.8125 0 
z
" id="DejaVuSans-68"/>
       <path d="M 9.8125 72.90625 
L 51.703125 72.90625 
L 51.703125 64.59375 
L 19.671875 64.59375 
L 19.671875 43.109375 
L 48.578125 43.109375 
L 48.578125 34.8125 
L 19.671875 34.8125 
L 19.671875 0 
L 9.8125 0 
z
" id="DejaVuSans-70"/>
      </defs>
      <use xlink:href="#DejaVuSans-67"/>
      <use x="69.824219" xlink:href="#DejaVuSans-68"/>
      <use x="146.826172" xlink:href="#DejaVuSans-70"/>
     </g>
    </g>
   </g>
   <g id="line2d_15">
    <path clip-path="url(#p1fd84589d4)" d="M 54.191314 242.116364 
L 54.573943 241.988414 
L 54.6696 241.762041 
L 54.717429 241.648854 
L 54.765257 241.447087 
L 54.860914 241.333901 
L 54.956571 240.831944 
L 55.0044 240.718757 
L 55.052229 240.610492 
L 55.147886 240.497305 
L 55.195714 239.818187 
L 55.291371 239.705 
L 55.3392 239.321151 
L 55.434857 239.207964 
L 55.530514 238.469792 
L 55.674 238.346763 
L 55.721829 237.382218 
L 55.913143 237.269032 
L 56.0088 236.06335 
L 56.104457 235.950163 
L 56.152286 235.359626 
L 56.295771 235.246439 
L 56.391429 233.809464 
L 56.487086 233.691356 
L 56.582743 233.233689 
L 56.630571 233.120503 
L 56.6784 232.013244 
L 56.869714 231.900058 
L 56.869714 230.974881 
L 57.0132 230.861695 
L 57.108857 229.587117 
L 57.156686 229.473931 
L 57.252343 229.026106 
L 57.348 228.91292 
L 57.443657 227.077331 
L 57.587143 226.964145 
L 57.6828 226.324395 
L 57.730629 226.211209 
L 57.826286 225.010448 
L 57.874114 224.897262 
L 57.874114 224.641362 
L 58.0176 224.528176 
L 58.065429 223.548867 
L 58.208914 223.435681 
L 58.304571 222.033153 
L 58.3524 221.919967 
L 58.3524 221.481984 
L 58.543714 221.368798 
L 58.591543 220.448543 
L 58.6872 220.335357 
L 58.782857 219.080464 
L 58.878514 218.967277 
L 58.974171 218.243868 
L 59.022 218.130682 
L 59.022 217.702542 
L 59.165486 217.589355 
L 59.261143 216.354147 
L 59.3568 216.24096 
L 59.452457 215.128781 
L 59.595943 215.005752 
L 59.6916 214.164235 
L 59.739429 214.051049 
L 59.787257 212.756787 
L 60.0264 212.638679 
L 60.122057 211.157413 
L 60.217714 211.044227 
L 60.313371 210.045233 
L 60.3612 209.932047 
L 60.456857 209.193874 
L 60.504686 209.080688 
L 60.600343 208.637785 
L 60.696 208.524598 
L 60.696 207.948824 
L 60.839486 207.835637 
L 60.887314 206.255948 
L 61.0308 206.142762 
L 61.0308 205.901626 
L 61.174286 205.788439 
L 61.269943 205.094557 
L 61.317771 204.981371 
L 61.3656 204.100485 
L 61.461257 203.987298 
L 61.461257 203.623133 
L 61.652571 203.509947 
L 61.748229 202.299344 
L 61.891714 202.186158 
L 61.891714 201.974548 
L 62.0352 201.861362 
L 62.130857 200.473598 
L 62.178686 200.360411 
L 62.178686 200.143881 
L 62.37 200.030694 
L 62.417829 199.361418 
L 62.609143 199.248232 
L 62.7048 197.575041 
L 62.800457 197.461854 
L 62.896114 197.304378 
L 62.943943 197.191191 
L 63.0396 196.41365 
L 63.087429 196.300463 
L 63.183086 195.424499 
L 63.326571 195.311312 
L 63.3744 194.720774 
L 63.470057 194.607588 
L 63.565714 193.401906 
L 63.757029 193.28872 
L 63.757029 193.091874 
L 63.900514 192.978687 
L 63.996171 191.960009 
L 64.044 191.846823 
L 64.044 191.177547 
L 64.330971 191.06436 
L 64.3788 190.404926 
L 64.522286 190.29174 
L 64.570114 189.440381 
L 64.7136 189.327195 
L 64.761429 188.446309 
L 64.904914 188.333122 
L 65.000571 187.752427 
L 65.0484 187.63924 
L 65.096229 187.289839 
L 65.191886 187.176652 
L 65.191886 186.699301 
L 65.3832 186.586114 
L 65.478857 185.158981 
L 65.574514 185.045795 
L 65.622343 184.533995 
L 65.813657 184.415887 
L 65.861486 184.120618 
L 65.957143 184.007432 
L 66.0528 182.993675 
L 66.100629 182.880489 
L 66.196286 182.260424 
L 66.244114 182.147238 
L 66.244114 182.093105 
L 66.435429 181.979919 
L 66.483257 181.330327 
L 66.626743 181.21714 
L 66.7224 180.291964 
L 66.913714 180.178778 
L 67.009371 179.1601 
L 67.0572 179.046914 
L 67.152857 178.554799 
L 67.200686 178.441612 
L 67.200686 178.180791 
L 67.344171 178.067605 
L 67.392 177.954418 
L 67.392 177.600096 
L 67.631143 177.486909 
L 67.678971 176.852081 
L 67.774629 176.738894 
L 67.870286 175.533213 
L 68.0616 175.420026 
L 68.157257 175.247786 
L 68.205086 175.1346 
L 68.300743 174.657248 
L 68.348571 174.544062 
L 68.348571 173.840337 
L 68.539886 173.727151 
L 68.635543 173.057875 
L 68.7312 172.944688 
L 68.826857 172.408283 
L 68.922514 172.295097 
L 68.922514 171.827587 
L 69.066 171.714401 
L 69.066 171.527397 
L 69.257314 171.414211 
L 69.305143 170.833515 
L 69.4008 170.720329 
L 69.496457 169.750862 
L 69.544286 169.637676 
L 69.544286 169.494963 
L 69.783429 169.381776 
L 69.783429 168.963478 
L 70.0704 168.845371 
L 70.166057 167.802087 
L 70.261714 167.688901 
L 70.357371 166.78833 
L 70.500857 166.675144 
L 70.500857 166.630854 
L 70.644343 166.517667 
L 70.74 166.128896 
L 70.787829 166.01571 
L 70.835657 165.489147 
L 71.0748 165.375961 
L 71.0748 165.233247 
L 71.218286 165.120061 
L 71.266114 164.214569 
L 71.361771 164.101383 
L 71.4096 163.579741 
L 71.600914 163.466555 
L 71.696571 163.304157 
L 71.792229 163.19097 
L 71.887886 162.782515 
L 71.935714 162.669328 
L 72.031371 162.339611 
L 72.0792 162.226425 
L 72.174857 161.439041 
L 72.366171 161.325855 
L 72.414 160.902636 
L 72.653143 160.779607 
L 72.7488 159.879037 
L 72.940114 159.76585 
L 72.940114 159.411528 
L 73.0836 159.298341 
L 73.131429 158.702882 
L 73.274914 158.589696 
L 73.370571 158.250136 
L 73.4184 158.13695 
L 73.514057 157.58086 
L 73.801029 157.457831 
L 73.896686 156.857451 
L 73.992343 156.744265 
L 74.088 155.646848 
L 74.327143 155.533662 
L 74.327143 155.39587 
L 74.518457 155.282683 
L 74.566286 155.135049 
L 74.661943 155.021862 
L 74.7576 154.421482 
L 74.805429 154.308296 
L 74.901086 153.949052 
L 75.044571 153.835865 
L 75.140229 153.097693 
L 75.4272 152.974664 
L 75.522857 152.393969 
L 75.762 152.261098 
L 75.809829 151.926459 
L 75.953314 151.813273 
L 76.001143 151.449108 
L 76.0968 151.335921 
L 76.192457 150.710936 
L 76.240286 150.597749 
L 76.240286 150.51409 
L 76.383771 150.400903 
L 76.383771 150.081028 
L 76.718571 149.967842 
L 76.7664 149.451121 
L 76.957714 149.337935 
L 77.005543 148.698185 
L 77.1012 148.584999 
L 77.149029 148.294651 
L 77.244686 148.181465 
L 77.244686 148.102726 
L 77.436 147.98954 
L 77.531657 147.866511 
L 77.579486 147.753325 
L 77.675143 147.108654 
L 77.722971 146.995468 
L 77.722971 146.936414 
L 77.914286 146.823228 
L 77.914286 146.74941 
L 78.1056 146.636224 
L 78.201257 145.794707 
L 78.392571 145.666757 
L 78.488229 145.233696 
L 78.536057 145.12051 
L 78.536057 145.071298 
L 78.7752 144.953191 
L 78.870857 144.667764 
L 78.966514 144.554578 
L 78.966514 144.534893 
L 79.11 144.421707 
L 79.205657 143.895144 
L 79.253486 143.781957 
L 79.301314 143.417792 
L 79.4448 143.304606 
L 79.492629 143.073312 
L 79.827429 142.960125 
L 79.827429 142.512301 
L 80.018743 142.399114 
L 80.1144 141.729838 
L 80.305714 141.616652 
L 80.401371 141.129458 
L 80.544857 141.016271 
L 80.544857 140.942454 
L 80.688343 140.829268 
L 80.784 140.243651 
L 80.831829 140.130464 
L 80.831829 140.032041 
L 81.1188 139.913934 
L 81.1188 139.815511 
L 81.262286 139.702324 
L 81.357943 139.284027 
L 81.501429 139.165919 
L 81.549257 138.57046 
L 81.740571 138.452352 
L 81.740571 138.319481 
L 81.979714 138.206295 
L 81.979714 138.171847 
L 82.1232 138.058661 
L 82.171029 137.832288 
L 82.314514 137.719101 
L 82.410171 137.379542 
L 82.458 137.266355 
L 82.458 137.226986 
L 82.601486 137.1138 
L 82.697143 136.351022 
L 83.079771 136.223072 
L 83.1276 135.82938 
L 83.271086 135.711272 
L 83.271086 135.489821 
L 83.4624 135.376634 
L 83.4624 135.184709 
L 83.653714 135.071523 
L 83.701543 134.791017 
L 83.845029 134.677831 
L 83.892857 134.298902 
L 83.988514 134.185716 
L 84.084171 133.954422 
L 84.132 133.841236 
L 84.132 133.555809 
L 84.514629 133.442622 
L 84.610286 133.083379 
L 84.8016 132.970192 
L 84.897257 132.591264 
L 84.992914 132.478077 
L 85.088571 132.069622 
L 85.1364 131.956435 
L 85.1364 131.882618 
L 85.4712 131.769432 
L 85.566857 131.331449 
L 85.710343 131.218263 
L 85.806 131.100155 
L 85.901657 130.982048 
L 85.901657 130.799965 
L 86.1408 130.686779 
L 86.1408 130.366904 
L 86.284286 130.253718 
L 86.332114 130.002739 
L 86.523429 129.889553 
L 86.619086 129.599205 
L 86.714743 129.486018 
L 86.8104 129.284251 
L 86.906057 129.171065 
L 87.001714 128.925007 
L 87.1452 128.811821 
L 87.1452 128.747846 
L 87.288686 128.63466 
L 87.336514 128.452577 
L 87.48 128.339391 
L 87.575657 127.812828 
L 87.623486 127.699641 
L 87.719143 127.428978 
L 88.1496 127.315791 
L 88.1496 127.074655 
L 88.436571 126.961469 
L 88.532229 126.562856 
L 88.675714 126.449669 
L 88.723543 126.277429 
L 88.8192 126.164243 
L 88.867029 125.977239 
L 89.154 125.85421 
L 89.201829 125.480203 
L 89.393143 125.362095 
L 89.4888 125.165249 
L 89.775771 125.04222 
L 89.871429 124.619002 
L 90.062743 124.500894 
L 90.1584 124.023543 
L 90.349714 123.910356 
L 90.349714 123.674141 
L 90.732343 123.556033 
L 90.828 123.226316 
L 91.019314 123.11313 
L 91.067143 122.999944 
L 91.1628 122.832624 
L 91.258457 122.719438 
L 91.306286 122.399563 
L 91.401943 122.286377 
L 91.4976 121.922212 
L 91.880229 121.809025 
L 91.880229 121.705681 
L 92.1672 121.592495 
L 92.262857 121.184039 
L 92.549829 121.070853 
L 92.549829 120.947824 
L 92.741143 120.834638 
L 92.8368 120.485236 
L 93.028114 120.367129 
L 93.075943 120.11615 
L 93.219429 119.998042 
L 93.219429 119.899619 
L 93.458571 119.786433 
L 93.5064 119.756906 
L 93.602057 119.64372 
L 93.602057 119.56006 
L 93.793371 119.446874 
L 93.8412 119.407504 
L 93.984686 119.294318 
L 94.032514 119.058103 
L 94.176 118.944916 
L 94.223829 118.561067 
L 94.654286 118.442959 
L 94.702114 118.128006 
L 94.893429 118.014819 
L 94.893429 118.004977 
L 95.036914 117.89179 
L 95.132571 117.566995 
L 95.1804 117.453808 
L 95.1804 117.409518 
L 95.323886 117.296331 
L 95.323886 117.069959 
L 95.5152 116.956772 
L 95.610857 116.661503 
L 95.802171 116.548317 
L 95.85 116.331786 
L 96.089143 116.2186 
L 96.1848 115.913488 
L 96.280457 115.800302 
L 96.328286 115.731406 
L 96.471771 115.618219 
L 96.471771 115.613298 
L 96.615257 115.500112 
L 96.710914 115.382004 
L 96.8544 115.268818 
L 96.902229 115.145789 
L 96.997886 115.032603 
L 97.093543 114.653674 
L 97.1892 114.535567 
L 97.1892 114.481434 
L 97.619657 114.368248 
L 97.619657 114.230455 
L 97.906629 114.117269 
L 98.002286 113.802315 
L 98.1936 113.689129 
L 98.241429 113.408623 
L 98.384914 113.295437 
L 98.480571 113.088749 
L 98.767543 112.950957 
L 98.767543 112.768874 
L 99.102343 112.650766 
L 99.198 112.404709 
L 99.437143 112.271838 
L 99.5328 111.98149 
L 99.771943 111.858461 
L 99.771943 111.819092 
L 99.915429 111.705906 
L 100.011086 111.351583 
L 100.2024 111.238397 
L 100.298057 111.066156 
L 100.489371 110.938206 
L 100.489371 110.913601 
L 100.872 110.790572 
L 100.872 110.662622 
L 101.158971 110.544514 
L 101.254629 110.165586 
L 101.302457 110.0524 
L 101.350286 109.786657 
L 101.445943 109.673471 
L 101.445943 109.658708 
L 101.828571 109.545521 
L 101.828571 109.427414 
L 102.2112 109.304385 
L 102.2112 109.053406 
L 102.402514 108.94022 
L 102.498171 108.748295 
L 102.546 108.635109 
L 102.546 108.551449 
L 102.785143 108.438263 
L 102.785143 108.364445 
L 102.928629 108.251259 
L 103.024286 108.098703 
L 103.072114 107.985517 
L 103.072114 107.95599 
L 103.2156 107.842803 
L 103.2156 107.837882 
L 103.454743 107.719775 
L 103.5504 107.449112 
L 103.933029 107.301477 
L 103.980857 107.144 
L 104.22 107.030814 
L 104.22 106.868416 
L 104.411314 106.755229 
L 104.506971 106.41567 
L 104.698286 106.297563 
L 104.793943 106.248351 
L 104.8896 106.135165 
L 104.985257 106.021978 
L 105.320057 105.908792 
L 105.415714 105.746394 
L 105.5592 105.633207 
L 105.654857 105.249358 
L 105.894 105.116487 
L 105.894 105.04267 
L 106.085314 104.929483 
L 106.085314 104.899956 
L 106.2288 104.78677 
L 106.2288 104.737558 
L 106.611429 104.624372 
L 106.707086 104.427526 
L 106.802743 104.314339 
L 106.802743 104.279891 
L 107.089714 104.161784 
L 107.089714 104.043676 
L 107.376686 103.925569 
L 107.472343 103.822224 
L 107.568 103.709038 
L 107.663657 103.399006 
L 107.9028 103.280898 
L 107.950629 103.103737 
L 108.2376 102.985629 
L 108.333257 102.867522 
L 108.524571 102.754335 
L 108.524571 102.73465 
L 108.715886 102.621464 
L 108.715886 102.606701 
L 108.9072 102.493514 
L 109.002857 102.193324 
L 109.098514 102.080138 
L 109.098514 102.011242 
L 109.242 101.898055 
L 109.289829 101.701209 
L 109.481143 101.588023 
L 109.528971 101.538811 
L 109.959429 101.420704 
L 109.959429 101.341965 
L 110.198571 101.223858 
L 110.2464 100.967958 
L 110.629029 100.840008 
L 110.629029 100.716979 
L 110.820343 100.603793 
L 110.916 100.328208 
L 111.202971 100.215022 
L 111.2508 100.131362 
L 111.394286 100.018176 
L 111.394286 99.850857 
L 111.824743 99.732749 
L 111.872571 99.639248 
L 112.159543 99.526061 
L 112.2552 99.39319 
L 112.398686 99.270161 
L 112.446514 99.152054 
L 112.542171 99.038867 
L 112.59 98.842021 
L 112.9248 98.728835 
L 112.9248 98.689466 
L 113.307429 98.576279 
L 113.403086 98.413881 
L 113.690057 98.300695 
L 113.785714 98.089085 
L 113.977029 97.975899 
L 113.977029 97.966057 
L 114.264 97.847949 
L 114.264 97.665867 
L 114.694457 97.547759 
L 114.790114 97.469021 
L 114.9336 97.345992 
L 115.029257 97.183594 
L 115.555371 97.045802 
L 115.6032 96.898167 
L 115.794514 96.78006 
L 115.794514 96.725927 
L 115.985829 96.612741 
L 116.081486 96.420816 
L 116.2728 96.302708 
L 116.2728 96.228891 
L 116.703257 96.105862 
L 116.751086 96.007439 
L 117.133714 95.879489 
L 117.133714 95.776145 
L 117.372857 95.658038 
L 117.420686 95.466113 
L 117.707657 95.348005 
L 117.803314 95.229898 
L 117.803314 95.210213 
L 118.2816 95.097027 
L 118.2816 95.008446 
L 118.568571 94.89526 
L 118.664229 94.72794 
L 119.190343 94.565543 
L 119.286 94.334249 
L 119.429486 94.221062 
L 119.477314 94.152166 
L 119.764286 94.034058 
L 119.859943 93.915951 
L 119.907771 93.82737 
L 120.003429 93.714184 
L 120.003429 93.694499 
L 120.673029 93.576392 
L 120.720857 93.438599 
L 120.96 93.325413 
L 120.96 93.27128 
L 121.151314 93.158094 
L 121.246971 92.872667 
L 121.868743 92.729954 
L 121.9644 92.680742 
L 122.2992 92.538029 
L 122.394857 92.351025 
L 122.634 92.218154 
L 122.634 92.154179 
L 122.873143 92.040993 
L 122.873143 91.913043 
L 123.064457 91.799857 
L 123.064457 91.780172 
L 123.351429 91.666986 
L 123.447086 91.617774 
L 123.6384 91.504588 
L 123.734057 91.381559 
L 124.308 91.243767 
L 124.403657 91.042 
L 124.594971 90.923892 
L 124.594971 90.869759 
L 124.881943 90.751652 
L 124.9776 90.618781 
L 125.168914 90.490831 
L 125.168914 90.412092 
L 125.742857 90.284143 
L 125.742857 90.244773 
L 126.125486 90.126666 
L 126.125486 90.087297 
L 126.3168 89.97411 
L 126.3168 89.924899 
L 126.603771 89.811712 
L 126.699429 89.67392 
L 127.177714 89.516443 
L 127.177714 89.477074 
L 127.464686 89.358967 
L 127.512514 89.299913 
L 127.656 89.181805 
L 127.703829 89.098146 
L 128.134286 88.984959 
L 128.182114 88.911142 
L 128.516914 88.793034 
L 128.612571 88.566661 
L 128.899543 88.443633 
L 128.9952 88.350131 
L 129.616971 88.232023 
L 129.616971 88.222181 
L 129.760457 88.108995 
L 129.856114 88.064704 
L 130.286571 87.912149 
L 130.3344 87.798962 
L 130.525714 87.680855 
L 130.525714 87.567668 
L 131.099657 87.449561 
L 131.099657 87.439718 
L 131.482286 87.321611 
L 131.482286 87.252715 
L 131.721429 87.139528 
L 131.721429 87.129686 
L 132.056229 87.011578 
L 132.151886 86.859023 
L 132.438857 86.740915 
L 132.438857 86.686782 
L 132.917143 86.563754 
L 133.0128 86.455488 
L 133.586743 86.288169 
L 133.6824 86.20451 
L 134.065029 86.091323 
L 134.112857 86.037191 
L 134.352 85.914162 
L 134.447657 85.751764 
L 135.117257 85.574603 
L 135.117257 85.56476 
L 135.404229 85.446653 
L 135.499886 85.402362 
L 135.786857 85.26457 
L 135.834686 85.210438 
L 136.073829 85.097251 
L 136.073829 85.028355 
L 136.647771 84.905326 
L 136.647771 84.797061 
L 137.0304 84.683875 
L 137.126057 84.654348 
L 137.604343 84.496871 
L 137.7 84.314788 
L 138.178286 84.181917 
L 138.178286 84.132706 
L 138.3696 84.019519 
L 138.3696 83.970308 
L 138.608743 83.8522 
L 139.7088 83.630749 
L 139.804457 83.512641 
L 140.091429 83.394534 
L 140.187086 83.241978 
L 140.3784 83.12387 
L 140.3784 83.118949 
L 141.048 82.986078 
L 141.048 82.976236 
L 141.3828 82.858128 
L 141.478457 82.794153 
L 142.004571 82.631755 
L 142.004571 82.597307 
L 142.3872 82.4792 
L 142.482857 82.356171 
L 142.961143 82.238063 
L 143.0568 82.115035 
L 143.7264 81.937873 
L 143.7264 81.893583 
L 144.204686 81.770554 
L 144.300343 81.696737 
L 144.396 81.583551 
L 144.491657 81.465443 
L 145.0656 81.347335 
L 145.0656 81.317808 
L 145.543886 81.19478 
L 145.543886 81.165253 
L 146.022171 81.042224 
L 146.07 80.988091 
L 146.4048 80.860142 
L 146.4048 80.845378 
L 146.930914 80.717428 
L 146.978743 80.619005 
L 147.265714 80.500898 
L 147.361371 80.42708 
L 148.126629 80.240077 
L 148.126629 80.235156 
L 148.317943 80.121969 
L 148.4136 80.087521 
L 148.700571 79.964492 
L 148.700571 79.851306 
L 149.418 79.723356 
L 149.418 79.688908 
L 149.704971 79.5708 
L 149.7528 79.551116 
L 150.326743 79.428087 
L 150.4224 79.246005 
L 150.852857 79.127897 
L 150.852857 79.108212 
L 151.331143 78.985184 
L 151.331143 78.97042 
L 151.952914 78.847392 
L 152.048571 78.788338 
L 152.718171 78.645624 
L 152.766 78.596413 
L 153.1008 78.468463 
L 153.196457 78.424173 
L 153.483429 78.306065 
L 153.483429 78.291302 
L 153.866057 78.178115 
L 154.44 78.040323 
L 154.44 78.015717 
L 154.822629 77.902531 
L 154.870457 77.848398 
L 155.157429 77.730291 
L 155.970514 77.538366 
L 156.018343 77.528523 
L 156.544457 77.390731 
L 156.640114 77.297229 
L 157.309714 77.16928 
L 157.405371 77.095462 
L 158.074971 76.967512 
L 158.170629 76.888774 
L 158.4576 76.775588 
L 158.4576 76.755903 
L 159.031543 76.627953 
L 159.031543 76.618111 
L 159.462 76.500003 
L 159.462 76.460634 
L 159.701143 76.342526 
L 160.944686 76.106311 
L 160.944686 76.091548 
L 161.231657 75.97344 
L 161.327314 75.870096 
L 161.8056 75.751989 
L 162.4752 75.574827 
L 162.4752 75.560064 
L 163.049143 75.437035 
L 163.049143 75.407508 
L 163.718743 75.289401 
L 163.8144 75.190978 
L 164.197029 75.07287 
L 164.197029 75.02858 
L 164.962286 74.905551 
L 165.057943 74.836655 
L 165.918857 74.684099 
L 165.918857 74.659493 
L 166.397143 74.536465 
L 166.4928 74.452805 
L 167.353714 74.319934 
L 167.353714 74.315013 
L 167.736343 74.201827 
L 167.832 74.128009 
L 168.788571 74.000059 
L 168.8364 73.896715 
L 169.745143 73.739238 
L 169.745143 73.719554 
L 170.701714 73.601446 
L 170.797371 73.537471 
L 171.132171 73.409521 
L 171.227829 73.286493 
L 172.5192 73.163464 
L 172.614857 73.10441 
L 173.284457 72.961697 
L 173.380114 72.858353 
L 173.954057 72.730403 
L 173.954057 72.725482 
L 174.528 72.597532 
L 174.528 72.553241 
L 175.388914 72.435134 
L 175.388914 72.425292 
L 175.962857 72.297342 
L 176.058514 72.228446 
L 177.2064 72.002073 
L 177.2064 71.962704 
L 177.589029 71.844596 
L 177.636857 71.800306 
L 178.162971 71.682198 
L 178.2108 71.613302 
L 179.2152 71.450904 
L 179.2152 71.441062 
L 179.502171 71.322954 
L 179.55 71.288506 
L 180.5544 71.126108 
L 180.5544 71.086739 
L 180.984857 70.968631 
L 181.032686 70.958789 
L 181.702286 70.830839 
L 182.706686 70.688126 
L 182.706686 70.683205 
L 183.137143 70.565097 
L 183.184971 70.520807 
L 184.572 70.338724 
L 184.572 70.314119 
L 185.289429 70.19109 
L 186.246 70.06314 
L 186.246 70.058219 
L 186.724286 69.93519 
L 186.724286 69.930269 
L 187.92 69.80724 
L 187.92 69.782634 
L 188.350457 69.664527 
L 189.450514 69.516892 
L 189.546171 69.497208 
L 190.5984 69.280677 
L 190.5984 69.256071 
L 191.746286 69.118279 
L 191.794114 69.039541 
L 192.702857 68.911591 
L 192.702857 68.901749 
L 193.659429 68.768878 
L 193.659429 68.763956 
L 194.616 68.621243 
L 194.616 68.60648 
L 195.6204 68.473609 
L 195.6204 68.463766 
L 196.050857 68.340738 
L 196.050857 68.330895 
L 197.342229 68.198024 
L 197.342229 68.183261 
L 198.250971 68.045469 
L 198.250971 68.035626 
L 199.207543 67.907676 
L 199.3032 67.87815 
L 200.881543 67.686225 
L 200.929371 67.646856 
L 201.312 67.518906 
L 201.407657 67.459852 
L 202.794686 67.331902 
L 202.794686 67.326981 
L 203.559943 67.199031 
L 204.66 66.977579 
L 204.66 66.957895 
L 206.190514 66.81026 
L 206.190514 66.795497 
L 206.955771 66.662626 
L 207.051429 66.603572 
L 208.486286 66.455937 
L 208.486286 66.446095 
L 208.964571 66.323066 
L 208.964571 66.303382 
L 210.6864 66.170511 
L 210.734229 66.131142 
L 211.547314 65.993349 
L 212.408229 65.840794 
L 212.408229 65.835873 
L 213.938743 65.673475 
L 213.938743 65.65379 
L 214.704 65.52584 
L 214.799657 65.506156 
L 216.808457 65.294546 
L 216.808457 65.289625 
L 218.052 65.146912 
L 222.356571 64.595743 
L 222.356571 64.590822 
L 223.121829 64.467793 
L 223.217486 64.448108 
L 225.0828 64.24142 
L 225.0828 64.236499 
L 226.135029 64.11347 
L 226.182857 64.059338 
L 228.096 63.901861 
L 228.096 63.877255 
L 228.956914 63.749305 
L 231.922286 63.488484 
L 231.970114 63.473721 
L 233.4528 63.286717 
L 233.4528 63.276875 
L 234.792 63.148925 
L 234.887657 63.104635 
L 251.292857 61.520025 
L 252.2016 61.382232 
L 252.2016 61.37239 
L 254.2104 61.209992 
L 254.258229 61.180465 
L 256.554 60.954092 
L 256.554 60.94425 
L 258.228 60.801537 
L 260.810743 60.5604 
L 260.9064 60.545637 
L 262.771714 60.398003 
L 262.819543 60.378318 
L 265.641429 60.122418 
L 265.641429 60.117497 
L 268.463314 59.910809 
L 268.511143 59.891124 
L 271.093886 59.694278 
L 271.093886 59.689357 
L 272.002629 59.556486 
L 275.924571 59.246454 
L 275.9724 59.23169 
L 278.794286 59.025002 
L 278.794286 59.005317 
L 283.577143 58.774023 
L 283.6728 58.754339 
L 285.729429 58.591941 
L 285.729429 58.58702 
L 290.751429 58.306514 
L 290.751429 58.291751 
L 293.0472 58.144116 
L 293.142857 58.11951 
L 298.212686 57.750424 
L 298.212686 57.740582 
L 301.943314 57.533894 
L 301.991143 57.504367 
L 315.144 56.716983 
L 315.144 56.712062 
L 318.013714 56.579191 
L 318.013714 56.57427 
L 321.84 56.387266 
L 321.84 56.382345 
L 325.188 56.205183 
L 325.235829 56.180578 
L 371.294743 53.911928 
L 375.790629 53.744609 
L 388.991314 53.277099 
L 388.991314 53.277099 
" style="fill:none;stroke:#1f77b4;stroke-linecap:square;stroke-width:1.5;"/>
   </g>
   <g id="line2d_16">
    <path clip-path="url(#p1fd84589d4)" d="M 54 54.322598 
L 360.102857 54.322598 
" style="fill:none;stroke:#008000;stroke-dasharray:5.55,2.4;stroke-dashoffset:0;stroke-width:1.5;"/>
   </g>
   <g id="line2d_17">
    <path clip-path="url(#p1fd84589d4)" d="M 360.102857 242.116364 
L 360.102857 54.322598 
" style="fill:none;stroke:#008000;stroke-dasharray:5.55,2.4;stroke-dashoffset:0;stroke-width:1.5;"/>
   </g>
   <g id="patch_3">
    <path d="M 54 252 
L 54 34.56 
" style="fill:none;stroke:#000000;stroke-linecap:square;stroke-linejoin:miter;stroke-width:0.8;"/>
   </g>
   <g id="patch_4">
    <path d="M 388.8 252 
L 388.8 34.56 
" style="fill:none;stroke:#000000;stroke-linecap:square;stroke-linejoin:miter;stroke-width:0.8;"/>
   </g>
   <g id="patch_5">
    <path d="M 54 242.116364 
L 388.8 242.116364 
" style="fill:none;stroke:#000000;stroke-linecap:square;stroke-linejoin:miter;stroke-width:0.8;"/>
   </g>
   <g id="patch_6">
    <path d="M 54 34.56 
L 388.8 34.56 
" style="fill:none;stroke:#000000;stroke-linecap:square;stroke-linejoin:miter;stroke-width:0.8;"/>
   </g>
  </g>
 </g>
 <defs>
  <clipPath id="p1fd84589d4">
   <rect height="217.44" width="334.8" x="54" y="34.56"/>
  </clipPath>
 </defs>
</svg>
